<mxfile host="65bd71144e">
    <diagram id="pN4bfKB4bPS4NjEbWWPQ" name="Page-1">
        <mxGraphModel dx="719" dy="689" grid="1" gridSize="10" guides="1" tooltips="1" connect="1" arrows="1" fold="1" page="1" pageScale="1" pageWidth="827" pageHeight="1169" math="0" shadow="0">
            <root>
                <mxCell id="0"/>
                <mxCell id="1" parent="0"/>
                <mxCell id="SPtzWIv5fFMbXDmVSmsz-8" value="&lt;div style=&quot;text-align: justify&quot;&gt;&lt;span&gt;data product (image)&lt;/span&gt;&lt;/div&gt;" style="rounded=0;whiteSpace=wrap;html=1;align=left;fillColor=#dae8fc;strokeColor=#6c8ebf;verticalAlign=bottom;" parent="1" vertex="1">
                    <mxGeometry x="110" y="140" width="620" height="210" as="geometry"/>
                </mxCell>
                <mxCell id="SPtzWIv5fFMbXDmVSmsz-6" value="Orchestration (Prefect)" style="rounded=0;whiteSpace=wrap;html=1;verticalAlign=bottom;align=left;fillColor=#dae8fc;strokeColor=#6c8ebf;" parent="1" vertex="1">
                    <mxGeometry x="140" y="175" width="560" height="135" as="geometry"/>
                </mxCell>
                <mxCell id="SPtzWIv5fFMbXDmVSmsz-12" style="edgeStyle=orthogonalEdgeStyle;rounded=0;orthogonalLoop=1;jettySize=auto;html=1;exitX=1;exitY=0.5;exitDx=0;exitDy=0;entryX=0;entryY=0.5;entryDx=0;entryDy=0;" parent="1" source="SPtzWIv5fFMbXDmVSmsz-1" target="SPtzWIv5fFMbXDmVSmsz-2" edge="1">
                    <mxGeometry relative="1" as="geometry"/>
                </mxCell>
                <mxCell id="SPtzWIv5fFMbXDmVSmsz-19" style="edgeStyle=orthogonalEdgeStyle;rounded=0;orthogonalLoop=1;jettySize=auto;html=1;exitX=0.5;exitY=0;exitDx=0;exitDy=0;entryX=0.403;entryY=1.2;entryDx=0;entryDy=0;entryPerimeter=0;" parent="1" source="SPtzWIv5fFMbXDmVSmsz-1" target="SPtzWIv5fFMbXDmVSmsz-4" edge="1">
                    <mxGeometry relative="1" as="geometry"/>
                </mxCell>
                <mxCell id="SPtzWIv5fFMbXDmVSmsz-1" value="Ingest (dbc)" style="rounded=0;whiteSpace=wrap;html=1;" parent="1" vertex="1">
                    <mxGeometry x="307" y="210" width="106.5" height="60" as="geometry"/>
                </mxCell>
                <mxCell id="SPtzWIv5fFMbXDmVSmsz-13" style="edgeStyle=orthogonalEdgeStyle;rounded=0;orthogonalLoop=1;jettySize=auto;html=1;exitX=1;exitY=0.5;exitDx=0;exitDy=0;entryX=0;entryY=0.5;entryDx=0;entryDy=0;" parent="1" source="SPtzWIv5fFMbXDmVSmsz-2" target="SPtzWIv5fFMbXDmVSmsz-3" edge="1">
                    <mxGeometry relative="1" as="geometry"/>
                </mxCell>
                <mxCell id="SPtzWIv5fFMbXDmVSmsz-20" style="edgeStyle=orthogonalEdgeStyle;rounded=0;orthogonalLoop=1;jettySize=auto;html=1;exitX=0.5;exitY=0;exitDx=0;exitDy=0;entryX=0.622;entryY=1.107;entryDx=0;entryDy=0;entryPerimeter=0;" parent="1" source="SPtzWIv5fFMbXDmVSmsz-2" target="SPtzWIv5fFMbXDmVSmsz-4" edge="1">
                    <mxGeometry relative="1" as="geometry"/>
                </mxCell>
                <mxCell id="SPtzWIv5fFMbXDmVSmsz-2" value="Transform (dbt)" style="rounded=0;whiteSpace=wrap;html=1;" parent="1" vertex="1">
                    <mxGeometry x="450" y="210" width="90" height="60" as="geometry"/>
                </mxCell>
                <mxCell id="SPtzWIv5fFMbXDmVSmsz-14" style="edgeStyle=orthogonalEdgeStyle;rounded=0;orthogonalLoop=1;jettySize=auto;html=1;exitX=1;exitY=0.5;exitDx=0;exitDy=0;entryX=0;entryY=0.5;entryDx=0;entryDy=0;" parent="1" source="SPtzWIv5fFMbXDmVSmsz-3" target="SPtzWIv5fFMbXDmVSmsz-15" edge="1">
                    <mxGeometry relative="1" as="geometry">
                        <mxPoint x="750" y="240" as="targetPoint"/>
                    </mxGeometry>
                </mxCell>
                <mxCell id="SPtzWIv5fFMbXDmVSmsz-21" style="edgeStyle=orthogonalEdgeStyle;rounded=0;orthogonalLoop=1;jettySize=auto;html=1;exitX=0.5;exitY=0;exitDx=0;exitDy=0;entryX=0.839;entryY=1.093;entryDx=0;entryDy=0;entryPerimeter=0;" parent="1" source="SPtzWIv5fFMbXDmVSmsz-3" target="SPtzWIv5fFMbXDmVSmsz-4" edge="1">
                    <mxGeometry relative="1" as="geometry">
                        <mxPoint x="671" y="70" as="targetPoint"/>
                    </mxGeometry>
                </mxCell>
                <mxCell id="SPtzWIv5fFMbXDmVSmsz-3" value="Present (dataviz, reports)" style="rounded=0;whiteSpace=wrap;html=1;" parent="1" vertex="1">
                    <mxGeometry x="580" y="210" width="100" height="60" as="geometry"/>
                </mxCell>
                <mxCell id="SPtzWIv5fFMbXDmVSmsz-22" style="edgeStyle=orthogonalEdgeStyle;rounded=0;orthogonalLoop=1;jettySize=auto;html=1;exitX=0.5;exitY=0;exitDx=0;exitDy=0;" parent="1" source="SPtzWIv5fFMbXDmVSmsz-4" target="SPtzWIv5fFMbXDmVSmsz-5" edge="1">
                    <mxGeometry relative="1" as="geometry"/>
                </mxCell>
                <mxCell id="SPtzWIv5fFMbXDmVSmsz-4" value="Metadata storage buckets (GCS, run versioned)" style="rounded=0;whiteSpace=wrap;html=1;fillColor=#fff2cc;strokeColor=#d6b656;" parent="1" vertex="1">
                    <mxGeometry x="110" y="80" width="620" height="30" as="geometry"/>
                </mxCell>
                <mxCell id="SPtzWIv5fFMbXDmVSmsz-5" value="Metadata catalog" style="rounded=0;whiteSpace=wrap;html=1;fillColor=#fff2cc;strokeColor=#d6b656;" parent="1" vertex="1">
                    <mxGeometry x="110" y="20" width="620" height="30" as="geometry"/>
                </mxCell>
                <mxCell id="SPtzWIv5fFMbXDmVSmsz-9" value="Orchestration, platform" style="rounded=0;whiteSpace=wrap;html=1;fillColor=#fff2cc;strokeColor=#d6b656;" parent="1" vertex="1">
                    <mxGeometry x="110" y="380" width="620" height="30" as="geometry"/>
                </mxCell>
                <mxCell id="SPtzWIv5fFMbXDmVSmsz-11" style="edgeStyle=orthogonalEdgeStyle;rounded=0;orthogonalLoop=1;jettySize=auto;html=1;exitX=1;exitY=0.5;exitDx=0;exitDy=0;entryX=0;entryY=0.5;entryDx=0;entryDy=0;" parent="1" source="SPtzWIv5fFMbXDmVSmsz-10" target="SPtzWIv5fFMbXDmVSmsz-1" edge="1">
                    <mxGeometry relative="1" as="geometry"/>
                </mxCell>
                <mxCell id="SPtzWIv5fFMbXDmVSmsz-18" style="edgeStyle=orthogonalEdgeStyle;rounded=0;orthogonalLoop=1;jettySize=auto;html=1;exitX=0.5;exitY=0;exitDx=0;exitDy=0;entryX=0.17;entryY=1.027;entryDx=0;entryDy=0;entryPerimeter=0;" parent="1" source="SPtzWIv5fFMbXDmVSmsz-10" target="SPtzWIv5fFMbXDmVSmsz-4" edge="1">
                    <mxGeometry relative="1" as="geometry">
                        <mxPoint x="215" y="80" as="targetPoint"/>
                    </mxGeometry>
                </mxCell>
                <mxCell id="SPtzWIv5fFMbXDmVSmsz-10" value="Config" style="rounded=0;whiteSpace=wrap;html=1;" parent="1" vertex="1">
                    <mxGeometry x="160" y="210" width="110" height="60" as="geometry"/>
                </mxCell>
                <mxCell id="SPtzWIv5fFMbXDmVSmsz-15" value="Users" style="ellipse;whiteSpace=wrap;html=1;aspect=fixed;verticalAlign=middle;fillColor=#fff2cc;strokeColor=#d6b656;" parent="1" vertex="1">
                    <mxGeometry x="760" y="200" width="80" height="80" as="geometry"/>
                </mxCell>
                <mxCell id="SPtzWIv5fFMbXDmVSmsz-17" style="edgeStyle=orthogonalEdgeStyle;rounded=0;orthogonalLoop=1;jettySize=auto;html=1;exitX=1;exitY=0.5;exitDx=0;exitDy=0;entryX=0;entryY=0.5;entryDx=0;entryDy=0;" parent="1" source="SPtzWIv5fFMbXDmVSmsz-16" target="SPtzWIv5fFMbXDmVSmsz-10" edge="1">
                    <mxGeometry relative="1" as="geometry"/>
                </mxCell>
                <mxCell id="SPtzWIv5fFMbXDmVSmsz-16" value="Data&lt;br&gt;sources" style="ellipse;whiteSpace=wrap;html=1;aspect=fixed;verticalAlign=middle;fillColor=#fff2cc;strokeColor=#d6b656;" parent="1" vertex="1">
                    <mxGeometry x="10" y="200" width="80" height="80" as="geometry"/>
                </mxCell>
            </root>
        </mxGraphModel>
    </diagram>
</mxfile>